# xmcd
#
# Track frame offsets: 
#        150
#        16180
#        29652
#        41397
#        54161
#        67370
#        80932
#        97115
#        111360
#        121171
#        134009
#        148352
#        159741
#        171440
#        184187
#        195972
#        208761
#        220850
#        233220
#        248092
#        261621
#        277359
#
# Disc length: 3855 seconds
#
# Revision: 2
# Processed by: cddbd v1.5.2PL0 Copyright (c) Steve Scherf et al.
# Submitted via: ExactAudioCopyFreeDBPlugin 1.0
#
DISCID=650f0d16
DTITLE=Ray Charles - Singular Genius:  The Complete ABC Singles (1959-
DTITLE=1962)
DYEAR=2011
DGENRE=Soul
TTITLE0=Your Cheatin' Heart
TTITLE1=You are My Sunshine
TTITLE2=Don't Set Me Free
TTITLE3=The Brightest Smile in Town
TTITLE4=Take These Chains from My Heart
TTITLE5=No Letter Today
TTITLE6=Without Love (There is Nothing)
TTITLE7=No One
TTITLE8=Busted
TTITLE9=Making Believe
TTITLE10=That Lucky Old Sun
TTITLE11=Ol' Man Time
TTITLE12=Baby, Don't You Cry
TTITLE13=My Heart Cries for You
TTITLE14=My Baby Don't Dig Me
TTITLE15=Something's Wrong
TTITLE16=No One to Cry To
TTITLE17=A Tear Fell
TTITLE18=Smack Dab in the Middle
TTITLE19=I Wake Up Cryin'
TTITLE20=Makin' Whoopee (vocal) (live)
TTITLE21=Makin' Whoopee (piano) (live)
EXTD=
EXTT0=
EXTT1=
EXTT2=
EXTT3=
EXTT4=
EXTT5=
EXTT6=
EXTT7=
EXTT8=
EXTT9=
EXTT10=
EXTT11=
EXTT12=
EXTT13=
EXTT14=
EXTT15=
EXTT16=
EXTT17=
EXTT18=
EXTT19=
EXTT20=
EXTT21=
PLAYORDER=
